#!OML:ASF X:\für Bonn\!DataBase\2005_08_12_Daniel\c3d\Daniel.ASF
:FULLY-SPECIFIED
:DEGREES
280
root 1.30269 16.5471 0.432065 -569.639 -100.312 559.418
lowerback 17.5064 0.847188 -3.70922
upperback 3.9951 -0.184211 -5.07199
thorax -5.53572 -0.192285 -3.25708
lowerneck -6.91821 -3.66231 -0.945998
upperneck 5.06502 -5.45266 8.11901
head 3.16558 -2.47316 2.57777
rclavicle -1.09332e-014 4.77083e-015
rhumerus -116.831 -21.5337 45.0757
rradius 6.69008
rwrist 119.862
rhand -14.0602 728.997
rfingers 7.12502
rthumb 12.0711 -20.6343
lclavicle -1.09332e-014 4.77083e-015
lhumerus -278.155 145.321 -207.95
lradius 14.798
lwrist -69.0049
lhand -14.1938 0.00206768
lfingers 7.12502
lthumb 11.9423 29.6414
rfemur 0.750502 -2.75512 11.4826
rtibia 41.2029
rfoot -31.2892 -2.52229
rtoes -13.1058
lfemur -185.412 194.251 -202.34
ltibia 44.6327
lfoot 330.304 -4.64623
ltoes -0.101517
281
root 1.31041 16.5662 0.418137 -569.658 -100.359 559.579
lowerback 17.3576 0.737662 -3.80232
upperback 4.04032 -0.329565 -5.05076
thorax -5.41121 -0.262892 -3.14587
lowerneck -6.89527 -3.558 -1.05436
upperneck 5.13657 -5.30684 8.12907
head 3.18272 -2.40098 2.60986
rclavicle -1.21259e-014 -2.06736e-014
rhumerus -116.253 -21.0768 45.2182
rradius 6.83775
rwrist 119.419
rhand -15.4132 728.84
rfingers 7.12502
rthumb 10.7662 -20.8638
lclavicle -1.21259e-014 -2.06736e-014
lhumerus -277.074 146.241 -206.324
lradius 14.7644
lwrist -68.2088
lhand -15.1659 -0.225562
lfingers 7.12502
lthumb 11.0047 29.466
rfemur 0.619448 -2.75868 11.5076
rtibia 41.0959
rfoot -31.1118 -2.57263
rtoes -13.0492
lfemur -185.454 194.238 -202.281
ltibia 44.3598
lfoot 330.501 -4.6615
ltoes -0.135951
282
root 1.31881 16.5846 0.403566 -569.72 -100.418 559.813
lowerback 17.1789 0.621276 -3.9189
upperback 4.06024 -0.486376 -5.03515
thorax -5.29722 -0.338531 -3.0258
lowerneck -6.78366 -3.44505 -1.12942
upperneck 5.19916 -5.14874 8.11133
head 3.17651 -2.32527 2.62779
rclavicle -2.68359e-015 -1.59028e-014
rhumerus -115.767 -20.7152 45.3949
rradius 7.07916
rwrist 119.042
rhand -16.4571 728.45
rfingers 7.12502
rthumb 9.75918 -21.3037
lclavicle -2.68359e-015 -1.59028e-014
lhumerus -276.186 147.147 -204.893
lradius 14.756
lwrist -67.5012
lhand -16.2624 -0.42939
lfingers 7.12502
lthumb 9.94702 29.3156
rfemur 0.461138 -2.77404 11.5211
rtibia 40.9784
rfoot -30.896 -2.68093
rtoes -13.0444
lfemur -185.532 194.234 -202.226
ltibia 44.0786
lfoot 330.7 -4.70946
ltoes -0.0417959
283
root 1.32784 16.6031 0.38858 -569.818 -100.458 560.104
lowerback 16.9624 0.502995 -4.04371
upperback 4.07343 -0.643556 -5.01819
thorax -5.16918 -0.414359 -2.90026
lowerneck -6.62495 -3.3273 -1.17573
upperneck 5.26565 -4.98651 8.08513
head 3.1609 -2.24832 2.63801
rclavicle 1.98785e-014 -1.59028e-015
rhumerus -115.347 -20.4637 45.61
rradius 7.3313
rwrist 118.611
rhand -17.2565 727.97
rfingers 7.12502
rthumb 8.98781 -21.819
lclavicle 1.98785e-014 -1.59028e-015
lhumerus -276.143 147.993 -204.967
lradius 14.718
lwrist -67.9682
lhand -17.4473 -0.864029
lfingers 7.12502
lthumb 8.80375 28.9323
rfemur 0.281282 -2.74672 11.5431
rtibia 40.8357
rfoot -30.6564 -2.75876
rtoes -12.9636
lfemur -185.627 194.231 -202.176
ltibia 43.7905
lfoot 330.879 -4.7062
ltoes -0.147425
284
root 1.33837 16.6201 0.373245 -569.816 -100.493 560.295
lowerback 16.7222 0.387756 -4.12302
upperback 4.11012 -0.786466 -5.0104
thorax -5.00281 -0.484726 -2.81411
lowerneck -6.48234 -3.21227 -1.18198
upperneck 5.31639 -4.82869 8.03263
head 3.14065 -2.17358 2.63108
rclavicle -8.15017e-015 3.18055e-015
rhumerus -115.095 -20.3058 45.8972
rradius 7.61429
rwrist 118.158
rhand -17.7516 727.345
rfingers 7.12502
rthumb 8.51007 -22.4634
lclavicle -8.15017e-015 3.18055e-015
lhumerus -276.679 148.687 -206.164
lradius 14.6792
lwrist -69.3681
lhand -18.4923 -1.28004
lfingers 7.12502
lthumb 7.79518 28.5563
rfemur 0.114107 -2.7171 11.5908
rtibia 40.667
rfoot -30.4049 -2.82247
rtoes -12.8484
lfemur -185.712 194.275 -202.117
ltibia 43.4915
lfoot 331.071 -4.68718
ltoes -0.133495
285
root 1.34925 16.6375 0.357924 -569.801 -100.528 560.487
lowerback 16.4819 0.273249 -4.21897
upperback 4.10855 -0.929692 -4.98118
thorax -4.87606 -0.553817 -2.69721
lowerneck -6.22226 -3.09791 -1.16811
upperneck 5.35717 -4.66895 7.94635
head 3.09253 -2.10133 2.60955
rclavicle 5.86415e-015 6.36111e-015
rhumerus -114.916 -20.3563 46.3297
rradius 7.97184
rwrist 117.642
rhand -17.7389 726.678
rfingers 7.12502
rthumb 8.52231 -23.1304
lclavicle 5.86415e-015 6.36111e-015
lhumerus -277.799 149.369 -208.567
lradius 14.6117
lwrist -71.7821
lhand -19.3146 -1.74341
lfingers 7.12502
lthumb 7.00149 28.1208
rfemur -0.0570413 -2.69369 11.6419
rtibia 40.4655
rfoot -30.1527 -2.93013
rtoes -12.8356
lfemur -185.796 194.386 -202.077
ltibia 43.1697
lfoot 331.239 -4.59252
ltoes -0.131248
286
root 1.36055 16.6557 0.34291 -569.884 -100.54 560.729
lowerback 16.2793 0.168978 -4.31316
upperback 4.12481 -1.06084 -4.94073
thorax -4.74941 -0.617677 -2.57299
lowerneck -5.96406 -2.97503 -1.18927
upperneck 5.40232 -4.49519 7.86466
head 3.04714 -2.02237 2.59647
rclavicle 4.17448e-015 5.40694e-014
rhumerus -114.907 -20.6938 46.9368
rradius 8.39371
rwrist 117.061
rhand -17.2647 725.902
rfingers 7.12502
rthumb 8.97996 -23.8872
lclavicle 4.17448e-015 5.40694e-014
lhumerus -279.414 150.016 -211.969
lradius 14.5572
lwrist -74.8896
lhand -19.8285 -2.01018
lfingers 7.12502
lthumb 6.50536 27.8699
rfemur -0.172095 -2.63257 11.6905
rtibia 40.2417
rfoot -29.9189 -3.02044
rtoes -12.8118
lfemur -185.796 194.517 -202.069
ltibia 42.8248
lfoot 331.383 -4.41784
ltoes -0.18234
287
root 1.37208 16.6733 0.32701 -569.934 -100.556 560.92
lowerback 16.101 0.0747704 -4.41244
upperback 4.13193 -1.17999 -4.88186
thorax -4.64417 -0.675192 -2.42979
lowerneck -5.64526 -2.87604 -1.19704
upperneck 5.43373 -4.35171 7.76129
head 2.98611 -1.96037 2.57198
rclavicle -1.14301e-014 1.27222e-014
rhumerus -114.963 -21.1539 47.6674
rradius 8.81688
rwrist 116.37
rhand -16.4525 725.213
rfingers 7.12502
rthumb 9.76364 -24.5405
lclavicle -1.14301e-014 1.27222e-014
lhumerus -280.789 150.648 -214.923
lradius 14.5344
lwrist -77.5783
lhand -19.9943 -1.92002
lfingers 7.12502
lthumb 6.34534 27.9649
rfemur -0.250746 -2.55703 11.7573
rtibia 40.004
rfoot -29.7283 -3.0961
rtoes -12.6561
lfemur -185.773 194.709 -202.07
ltibia 42.4683
lfoot 331.51 -4.19215
ltoes -0.234487
288
root 1.38504 16.6881 0.311417 -570.207 -100.571 561.307
lowerback 15.9714 -0.0161699 -4.52006
upperback 4.12717 -1.3029 -4.84659
thorax -4.57756 -0.734604 -2.30718
lowerneck -5.27242 -2.77057 -1.19439
upperneck 5.45827 -4.20086 7.66722
head 2.91251 -1.89556 2.54907
rclavicle 2.11706e-014 3.33958e-014
rhumerus -115.01 -21.5973 48.3692
rradius 9.18563
rwrist 115.573
rhand -15.552 724.674
rfingers 7.12502
rthumb 10.6324 -25.0365
lclavicle 2.11706e-014 3.33958e-014
lhumerus -282.028 151.255 -217.649
lradius 14.5652
lwrist -79.8694
lhand -19.7878 -1.49262
lfingers 7.12502
lthumb 6.54465 28.3863
rfemur -0.312107 -2.46103 11.7894
rtibia 39.768
rfoot -29.5945 -3.24535
rtoes -12.6938
lfemur -185.697 194.982 -202.136
ltibia 42.1099
lfoot 331.621 -3.94377
ltoes -0.179936
289
root 1.39758 16.7011 0.295795 -570.371 -100.563 561.541
lowerback 15.89 -0.103201 -4.58816
upperback 4.11091 -1.418 -4.8056
thorax -4.54919 -0.789793 -2.20278
lowerneck -4.78589 -2.6683 -1.12327
upperneck 5.43622 -4.0519 7.52291
head 2.7985 -1.83505 2.49638
rclavicle 6.26172e-015 5.08889e-014
rhumerus -115.012 -21.977 49.0479
rradius 9.50074
rwrist 114.632
rhand -14.5298 724.261
rfingers 7.12502
rthumb 11.6182 -25.3972
lclavicle 6.26172e-015 5.08889e-014
lhumerus -283.015 151.78 -219.876
lradius 14.617
lwrist -81.5464
lhand -19.3872 -0.664325
lfingers 7.12502
lthumb 6.93136 29.2022
rfemur -0.326358 -2.33234 11.8636
rtibia 39.5412
rfoot -29.5497 -3.3699
rtoes -12.592
lfemur -185.584 195.267 -202.189
ltibia 41.7686
lfoot 331.678 -3.61462
ltoes -0.221559
290
root 1.41167 16.7125 0.279991 -570.512 -100.557 561.762
lowerback 15.7888 -0.187257 -4.64471
upperback 4.11179 -1.52453 -4.7593
thorax -4.49156 -0.841516 -2.10133
lowerneck -4.3556 -2.57064 -1.09334
upperneck 5.43373 -3.91092 7.41647
head 2.70549 -1.77642 2.46329
rclavicle 1.09332e-014 -4.77083e-015
rhumerus -115.083 -22.3908 49.7733
rradius 9.77984
rwrist 113.621
rhand -13.4775 724.024
rfingers 7.12502
rthumb 12.6329 -25.5743
lclavicle 1.09332e-014 -4.77083e-015
lhumerus -283.651 152.117 -221.28
lradius 14.6799
lwrist -82.2714
lhand -18.7513 0.533224
lfingers 7.12502
lthumb 7.54522 30.3786
rfemur -0.369728 -2.20774 11.9442
rtibia 39.3238
rfoot -29.5568 -3.52993
rtoes -12.6358
lfemur -185.488 195.596 -202.242
ltibia 41.4443
lfoot 331.705 -3.28099
ltoes -0.213911
